<svg width="1843" height="382" viewBox="0 0 1843 382" fill="none" xmlns="http://www.w3.org/2000/svg">
<path d="M178.9 228.601C163.2 262.801 158.3 275.801 154.6 301.701C149.6 337.101 177.7 354.201 213.1 330.501C228 320.601 261.6 290.401 294.6 254.901C355.6 189.001 420.4 104.801 420.4 104.801L451.4 103.401C438.1 114.201 372 201.101 313 264.501C278.4 301.601 236.2 342.001 219.1 352.201C186.4 371.701 149.1 364.401 137 338.701C132.4 329.001 131.2 312.401 134 293.701C137.3 271.101 146.1 245.301 157.9 223.401C161 217.601 163.9 211.701 166.6 205.701L178.2 182.801L190.5 154.401C191 153.101 191.6 151.701 192.3 150.401C211 112.801 218.5 90.0008 219 68.1008C219.5 45.8008 202.5 28.8008 156.9 51.6008C111.3 74.4008 24.7998 157.801 24.7998 157.801L0.299805 155.901C26.4998 123.401 94.7998 62.3008 141.9 36.1008C188.9 9.90078 214.1 16.2008 232.8 40.8008C250.5 64.1008 234.3 117.801 212.6 157.901C209.8 163.101 208.8 162.201 194.7 193.001L178.9 228.601Z" fill="#FF8E20"/>
<path d="M392.9 93.6016L447.6 76.8016C453 75.1016 458.5 79.3016 458.3 85.0016L456.2 138.402C456 142.702 450.6 144.502 447.9 141.002C442 133.402 437.9 125.402 435.5 116.002L432.7 114.202C431 111.202 428.2 109.102 424.8 108.402L421.5 108.302C411.3 105.702 401.4 105.602 392.3 101.002C389.1 99.3016 389.5 94.6016 392.9 93.6016Z" fill="#FF8E20"/>
<path d="M30.6 191.802H19.2V205.102H0V191.902V151.602H19.1H39.8C50.9 151.602 60.7 160.502 60.7 171.802C60.7 182.802 52.7 189.302 50.5 189.902L61.1 205.002H38.9L30.6 191.802ZM19.2 175.002H36.2C41.1 175.002 42.2 174.802 42.2 171.902C42.2 168.802 41.2 168.702 36.2 168.702H19.2V175.002Z" fill="white"/>
<path d="M269.6 151.602C287.9 151.602 307 151.602 325.4 151.602V167.302C321.6 167.302 298.8 167.302 288.7 167.302V171.702C299.6 171.702 314.5 171.702 325.4 171.702V185.002H288.7V189.502H325.4V205.102C307.1 205.102 287.9 205.102 269.6 205.102V151.602Z" fill="white"/>
<path d="M267.4 167.301H242.8V205.101H225V167.301C215.2 167.401 204.8 167.401 200.4 167.401V151.701C222 151.701 245.7 151.701 267.4 151.701V167.301Z" fill="white"/>
<path d="M160 188.102C163.5 188.102 166.3 188.102 169.9 188.102C175 188.102 178.3 184.402 178.3 177.502V151.602H198.4V177.502C198.4 195.902 186.8 204.602 175.1 204.602H154.9C143.2 204.602 131.6 196.002 131.6 177.502V151.602H151.5V177.502C151.5 184.502 154.8 188.102 160 188.102Z" fill="white"/>
<path d="M105 151.602H88.1002C74.9002 151.602 64.2002 162.302 64.2002 175.502V181.102C64.2002 194.302 74.9002 205.002 88.1002 205.002H105C118.2 205.002 129 194.302 129 181.002V175.502C129 162.402 118.3 151.602 105 151.602ZM111.1 179.702C111.1 185.002 106.8 189.302 101.5 189.302H92.0002C86.7002 189.302 82.4002 185.002 82.4002 179.702V176.902C82.4002 171.602 86.7002 167.302 92.0002 167.302H101.5C106.8 167.302 111.1 171.602 111.1 176.902V179.702Z" fill="white"/>
<path d="M0 240.901V216.301H4.7V240.901H0Z" fill="white"/>
<path d="M36.1996 216.201L42.0996 235.401L47.9996 216.201H52.8996L44.4996 240.901H39.4996L31.0996 216.301H36.1996V216.201Z" fill="white"/>
<path d="M71.1998 225.901V230.301H59.2998V236.401H71.1998V240.901H54.2998V216.301H71.1998V220.701H59.2998V225.901H71.1998Z" fill="white"/>
<path d="M88.8998 223.5C88.6998 221.2 87.1998 219.9 84.6998 219.9C82.5998 219.9 80.9998 221 80.9998 222.6C80.9998 223.4 81.4998 224 82.2998 224.5C82.9998 224.9 82.9998 224.9 86.5998 226.2C91.0998 228 91.6998 228.3 92.7998 229.4C93.8998 230.5 94.4998 232.1 94.4998 233.8C94.4998 238.5 90.8998 241.4 85.2998 241.4C78.9998 241.4 75.4998 238.3 75.2998 232.5H80.0998C80.3998 235.7 82.1998 237.3 85.3998 237.3C87.7998 237.3 89.4998 236.2 89.4998 234.7C89.4998 233.7 88.8998 233 87.6998 232.3C86.9998 231.9 86.9998 231.9 83.2998 230.5C80.2998 229.3 78.8998 228.5 77.8998 227.5C76.7998 226.3 76.1998 224.8 76.1998 223.1C76.1998 218.9 79.7998 215.9 84.9998 215.9C88.2998 215.9 90.9998 217.2 92.5998 219.3C93.3998 220.5 93.7998 221.6 93.8998 223.6H88.8998V223.5Z" fill="white"/>
<path d="M14.1004 216.201L24.3004 233.501V216.201H28.9004V240.801H24.0004L13.5004 223.501V240.801H8.90039V216.201H14.1004Z" fill="white"/>
<path d="M124.4 216.201L129.5 235.801L134.6 216.201H140.8V240.801H136.7V221.601L131.7 240.801H127L122.1 221.601V240.801H118V216.201H124.4Z" fill="white"/>
<path d="M162.2 225.901V230.301H150.5V236.401H162.1V240.901H145.2V216.301H162.1V220.701H150.5V225.901H162.2Z" fill="white"/>
<path d="M171.7 216.201L181.9 233.501V216.201H186.5V240.801H181.6L171.1 223.501V240.801H166.5V216.201H171.7Z" fill="white"/>
<path d="M114.6 216.201V220.601H108.1V240.801H103V220.601H96.5V216.201H114.6Z" fill="white"/>
<path d="M207.5 216.201V220.601H201V240.801H195.9V220.601H189.4V216.201H207.5Z" fill="white"/>
<path d="M223.3 223.5C223.1 221.2 221.6 219.9 219.1 219.9C217 219.9 215.4 221 215.4 222.6C215.4 223.4 215.9 224 216.7 224.5C217.4 224.9 217.4 224.9 221 226.2C225.5 228 226.1 228.3 227.2 229.4C228.3 230.5 228.9 232.1 228.9 233.8C228.9 238.5 225.3 241.4 219.7 241.4C213.4 241.4 209.9 238.3 209.7 232.5H214.5C214.8 235.7 216.6 237.3 219.8 237.3C222.2 237.3 223.9 236.2 223.9 234.7C223.9 233.7 223.3 233 222.1 232.3C221.4 231.9 221.4 231.9 217.7 230.5C214.7 229.3 213.3 228.5 212.3 227.5C211.2 226.3 210.6 224.8 210.6 223.1C210.6 218.9 214.2 215.9 219.4 215.9C222.7 215.9 225.4 217.2 227 219.3C227.8 220.5 228.2 221.6 228.3 223.6H223.3V223.5Z" fill="white"/>
<path d="M178.9 228.501C163.2 262.601 158.3 275.601 154.7 301.401C149.7 336.801 177.7 353.801 213.1 330.201C227.9 320.301 261.5 290.201 294.4 254.701C355.2 188.901 419.9 104.901 419.9 104.901L450.9 103.501C437.6 114.301 371.7 201.001 312.8 264.301C278.3 301.301 236.2 341.601 219.1 351.801C186.5 371.201 149.2 364.001 137.1 338.401C132.5 328.701 131.4 312.101 134.1 293.501C137.4 270.901 146.1 245.201 157.9 223.401C161 217.601 163.9 211.801 166.6 205.801L178.2 182.901L190.5 154.601C191 153.301 191.6 151.901 192.3 150.601C211 113.101 218.4 90.3013 218.9 68.4013C219.4 46.1013 202.5 29.2012 157 52.0012C111.5 74.8012 25.1002 157.901 25.1002 157.901L0.700195 156.001C26.8002 123.601 95.0002 62.6012 142 36.5012C189 10.4012 214.1 16.7013 232.7 41.2013C250.3 64.4013 234.2 118.001 212.6 158.101C209.8 163.301 208.8 162.401 194.8 193.201L178.9 228.501Z" fill="#FF8E20"/>
<path d="M392.5 93.8009L447.1 77.0009C452.5 75.3009 458 79.5009 457.7 85.2009L455.6 138.501C455.4 142.801 450 144.501 447.3 141.101C441.4 133.501 437.301 125.601 434.901 116.101L432.1 114.301C430.4 111.301 427.6 109.201 424.3 108.501L421 108.401C410.8 105.801 400.9 105.701 391.9 101.101C388.6 99.5009 389 94.9009 392.5 93.8009Z" fill="#FF8E20"/>
<path d="M30.9004 191.801H19.5004V205.101H0.400391V191.901V151.701H19.5004H40.1004C51.2004 151.701 61.0004 160.601 61.0004 171.801C61.0004 182.801 53.0004 189.301 50.8004 189.801L61.4004 204.901H39.3004L30.9004 191.801ZM19.5004 175.001H36.4004C41.3004 175.001 42.4004 174.801 42.4004 171.901C42.4004 168.801 41.4004 168.701 36.4004 168.701H19.5004V175.001Z" fill="black"/>
<path d="M269.4 151.701C287.6 151.701 306.7 151.701 325 151.701V167.301C321.2 167.301 298.4 167.301 288.4 167.301V171.701C299.3 171.701 314.1 171.701 325 171.701V185.001H288.4V189.501H325V205.001C306.7 205.001 287.6 205.001 269.4 205.001V151.701Z" fill="black"/>
<path d="M267.2 167.301H242.7V205.001H224.9V167.301C215.2 167.401 204.8 167.401 200.4 167.401V151.701C221.9 151.701 245.6 151.701 267.2 151.701V167.301Z" fill="black"/>
<path d="M160 188.102C163.5 188.102 166.3 188.102 169.9 188.102C175 188.102 178.3 184.502 178.3 177.502V151.602H198.4V177.502C198.4 195.902 186.8 204.502 175.1 204.502H154.9C143.2 204.502 131.6 195.902 131.6 177.502V151.602H151.7V177.502C151.6 184.502 154.8 188.102 160 188.102Z" fill="black"/>
<path d="M105.2 151.701H88.3004C75.1004 151.701 64.4004 162.401 64.4004 175.601V181.201C64.4004 194.401 75.1004 205.101 88.3004 205.101H105.2C118.4 205.101 129.1 194.401 129.1 181.201V175.801C129.1 162.401 118.4 151.701 105.2 151.701ZM111.2 179.701C111.2 185.001 106.9 189.301 101.6 189.301H92.2004C86.9004 189.301 82.6004 185.001 82.6004 179.701V176.901C82.6004 171.601 86.9004 167.301 92.2004 167.301H101.6C106.9 167.301 111.2 171.601 111.2 176.901V179.701Z" fill="black"/>
<path d="M0.400391 240.702V216.102H5.10039V240.702H0.400391Z" fill="black"/>
<path d="M36.5004 216.201L42.4004 235.401L48.3004 216.201H53.2004L44.7004 240.801H39.8004L31.4004 216.201H36.5004Z" fill="black"/>
<path d="M71.5002 225.801V230.201H59.6002V236.301H71.5002V240.801H54.7002V216.201H71.5002V220.601H59.6002V225.801H71.5002Z" fill="black"/>
<path d="M89.1004 223.401C88.9004 221.101 87.4004 219.801 84.9004 219.801C82.8004 219.801 81.2004 220.901 81.2004 222.501C81.2004 223.301 81.7004 223.901 82.5004 224.401C83.2004 224.801 83.2004 224.801 86.7004 226.101C91.2004 227.901 91.8004 228.201 92.9004 229.301C94.0004 230.401 94.6004 232.001 94.6004 233.701C94.6004 238.401 91.1004 241.301 85.4004 241.301C79.1004 241.301 75.6004 238.201 75.4004 232.501H80.2004C80.5004 235.701 82.3004 237.201 85.5004 237.201C87.9004 237.201 89.6004 236.101 89.6004 234.601C89.6004 233.601 89.0004 232.901 87.8004 232.201C87.1004 231.801 87.1004 231.801 83.4004 230.401C80.4004 229.201 79.0004 228.401 78.0004 227.401C76.9004 226.201 76.3004 224.701 76.3004 223.001C76.3004 218.801 79.9004 215.801 85.1004 215.801C88.4004 215.801 91.1004 217.101 92.7004 219.201C93.5004 220.401 93.9004 221.501 94.0004 223.501H89.1004V223.401Z" fill="black"/>
<path d="M14.3998 216.201L24.4998 233.501V216.201H29.0998V240.801H24.2998L13.8998 223.501V240.801H9.2998V216.201H14.3998Z" fill="black"/>
<path d="M124.5 216.201L129.6 235.701L134.7 216.201H140.9V240.801H136.8V221.701L131.8 240.801H127.2L122.3 221.701V240.801H118.2V216.201H124.5Z" fill="black"/>
<path d="M162.2 225.801V230.201H150.6V236.301H162.2V240.801H145.4V216.201H162.2V220.601H150.6V225.801H162.2Z" fill="black"/>
<path d="M171.7 216.201L181.8 233.501V216.201H186.4V240.801H181.6L171.2 223.501V240.801H166.6V216.201H171.7Z" fill="black"/>
<path d="M114.7 216.201V220.601H108.2V240.701H103.1V220.601H96.5996V216.201H114.7Z" fill="black"/>
<path d="M207.4 216.201V220.601H200.9V240.701H195.8V220.601H189.3V216.201H207.4Z" fill="black"/>
<path d="M223.2 223.401C223 221.101 221.5 219.801 219 219.801C216.9 219.801 215.3 220.901 215.3 222.501C215.3 223.301 215.8 223.901 216.6 224.401C217.3 224.801 217.3 224.801 220.8 226.101C225.3 227.901 225.9 228.201 227 229.301C228.1 230.401 228.7 232.001 228.7 233.701C228.7 238.401 225.2 241.301 219.5 241.301C213.2 241.301 209.7 238.201 209.5 232.501H214.3C214.6 235.701 216.4 237.201 219.6 237.201C222 237.201 223.7 236.101 223.7 234.601C223.7 233.601 223.1 232.901 221.9 232.201C221.2 231.801 221.2 231.801 217.5 230.401C214.5 229.201 213.1 228.401 212.1 227.401C211 226.201 210.4 224.701 210.4 223.001C210.4 218.801 214 215.801 219.2 215.801C222.5 215.801 225.2 217.101 226.8 219.201C227.6 220.401 228 221.501 228.1 223.501H223.2V223.401Z" fill="black"/>
<path d="M600.5 0V381.8" stroke="black" stroke-width="5" stroke-miterlimit="10"/>
<path fill-rule="evenodd" clip-rule="evenodd" d="M826.6 175.5C827 163.7 817.2 152.9 796.6 152.5C782 152.3 771.3 157.3 770.3 169.3C769.5 179.3 772.9 181.3 779.5 183.9C782.9 187.5 810.4 191.9 816 192.9C824 194.3 841.2 197.9 850.3 207.3C867.1 224.9 859.3 259.4 841.1 271.2C828.7 279.2 811.8 281.2 795.6 281.4C788.2 281.6 770.6 279 759.9 271.2C746.9 261.8 740.5 247.4 739.5 233.7H768.6C768.6 237.5 769.8 243.5 774.8 248.7C781.4 255.5 792.2 257.7 802.1 257.3C812.1 257.1 821.5 254.1 825.3 250.5C831.7 244.5 833.1 233.1 825.9 226C816.3 216 787.6 216 768.8 209.6C753 204.2 740.1 192.8 742.5 169.3C744.9 146.2 761.7 129 797.2 129C805 129 832.1 129.6 846.3 147.6C853.9 157.4 855.9 170.9 854.7 175.7L826.6 175.5Z" fill="#00003C"/>
<path fill-rule="evenodd" clip-rule="evenodd" d="M960.3 260.099V200.999C960.3 183.799 951.7 174.999 940.9 170.699C935.5 168.499 926.1 166.699 915.4 166.699C900.6 166.699 871.1 169.899 870.7 204.399H897.1C897.5 196.599 899.5 186.799 915.5 186.799C928.3 186.799 933.9 189.799 933.9 196.599C934.3 201.799 931.9 206.999 926.9 208.799C920.3 210.999 909.1 213.399 898.8 213.799C874.1 217.999 868.1 232.799 867.5 247.899C866.7 268.799 877.5 281.199 899.4 281.199C915.8 281.199 924.3 274.999 934.1 265.799C933.9 269.599 935.1 273.999 937.1 276.599H966.6V272.799C962.9 269.699 960.1 264.899 960.3 260.099ZM933.8 231.999C933.8 243.999 930.8 255.599 914.2 258.099C902.2 260.099 897.2 255.499 895.6 249.099C893.2 240.299 899.2 233.099 907.8 231.499C915 230.099 925.8 230.499 933.8 225.699V231.999Z" fill="#00003C"/>
<path fill-rule="evenodd" clip-rule="evenodd" d="M971.3 168.499H986.5V158.099C986.5 141.899 994.7 131.199 1012.8 131.199H1030.2V151.899H1020.4C1016.6 151.899 1014.4 154.299 1014.4 159.299V168.499H1031V187.099H1014.4V276.699H986.5V187.099H971.3V168.499Z" fill="#00003C"/>
<path fill-rule="evenodd" clip-rule="evenodd" d="M1043.1 168.5H1071V189.5H1071.4C1073.2 183.1 1074.6 179.3 1084.4 172.5C1089.2 168.9 1095.6 165.3 1104.4 166.7V195.2C1092.4 193.8 1074.5 192.2 1071.1 215.8V276.7H1043.2V168.5H1043.1Z" fill="#00003C"/>
<path fill-rule="evenodd" clip-rule="evenodd" d="M1202.1 260.099V200.999C1202.1 183.799 1193.5 174.999 1182.7 170.699C1177.3 168.499 1167.9 166.699 1157.2 166.699C1142.4 166.699 1112.9 169.899 1112.5 204.399H1138.9C1139.3 196.599 1141.3 186.799 1157.3 186.799C1170.1 186.799 1175.7 189.799 1175.7 196.599C1176.1 201.799 1173.7 206.999 1168.7 208.799C1162.1 210.999 1150.9 213.399 1140.6 213.799C1115.8 217.999 1109.9 232.799 1109.3 247.899C1108.5 268.799 1119.3 281.199 1141.2 281.199C1157.6 281.199 1166.2 274.999 1175.9 265.799C1175.7 269.599 1176.9 273.999 1178.9 276.599H1208.4V272.799C1204.7 269.699 1201.9 264.899 1202.1 260.099ZM1175.6 231.999C1175.6 243.999 1172.6 255.599 1156 258.099C1144 260.099 1139 255.499 1137.5 249.099C1135.1 240.299 1141.1 233.099 1149.7 231.499C1156.9 230.099 1167.7 230.499 1175.6 225.699V231.999Z" fill="#00003C"/>
<path d="M1289.1 131.199H1267.8V279.999H1289.1V131.199Z" fill="#7A8E7D"/>
<path d="M1391.2 171.599C1384.2 168.099 1376.1 166.299 1366.9 166.299C1356.7 166.299 1347.8 168.399 1340.1 172.499C1334.4 175.599 1329.8 179.499 1326.3 184.399V167.399H1306.7V280.099H1327.1V222.099C1327.1 213.899 1328.6 206.999 1331.5 201.499C1334.4 195.999 1338.5 191.799 1343.9 188.999C1349.3 186.199 1355.6 184.699 1362.8 184.699C1372.4 184.699 1379.9 187.499 1385.2 192.999C1390.5 198.499 1393.2 206.699 1393.2 217.699V280.199H1413.6V215.399C1413.6 204.299 1411.6 195.199 1407.6 187.999C1403.7 180.499 1398.2 175.099 1391.2 171.599Z" fill="#7A8E7D"/>
<path d="M1475.9 257.599L1437.2 167.299H1415.9L1465.2 279.999H1486.1L1535.4 167.299H1515.4L1475.9 257.599Z" fill="#7A8E7D"/>
<path d="M1620.9 173.499C1612.5 168.699 1602.9 166.299 1592 166.299C1581.2 166.299 1571.6 168.699 1563 173.599C1554.4 178.499 1547.7 185.299 1542.8 193.899C1537.9 202.499 1535.5 212.499 1535.5 223.699C1535.5 234.899 1538 244.799 1543 253.499C1548 262.099 1555.1 268.899 1564.3 273.899C1573.4 278.899 1584 281.299 1596.1 281.299C1605.5 281.299 1613.9 279.699 1621.5 276.599C1629.1 273.499 1635.4 268.899 1640.5 262.999L1629.2 249.799C1625.1 254.299 1620.3 257.699 1614.9 259.999C1609.4 262.299 1603.4 263.399 1596.7 263.399C1588.6 263.399 1581.5 261.799 1575.2 258.499C1569 255.199 1564.1 250.699 1560.6 244.799C1558 240.499 1556.4 235.699 1555.8 230.499H1647.3C1647.4 229.499 1647.5 228.399 1647.6 227.299C1647.7 226.199 1647.7 225.199 1647.7 224.299C1647.7 212.699 1645.3 202.499 1640.6 193.799C1635.8 185.099 1629.2 178.299 1620.9 173.499ZM1573 188.299C1578.5 185.099 1584.8 183.499 1591.9 183.499C1599.1 183.499 1605.5 185.099 1610.9 188.299C1616.4 191.499 1620.6 195.899 1623.8 201.599C1626.2 205.899 1627.6 210.599 1628.1 215.799H1555.7C1556.3 210.599 1557.7 205.899 1560.1 201.699C1563.2 195.899 1567.5 191.399 1573 188.299Z" fill="#7A8E7D"/>
<path d="M1739 223.6C1734.8 221.5 1730.2 219.8 1725.1 218.6C1720 217.4 1714.9 216.4 1709.8 215.6C1704.7 214.8 1700.1 213.9 1695.9 212.7C1691.7 211.6 1688.3 210 1685.7 207.9C1683.1 205.8 1681.8 202.9 1681.8 199.1C1681.8 194.6 1684 190.8 1688.4 187.9C1692.8 185 1699.5 183.5 1708.4 183.5C1713.9 183.5 1719.5 184.1 1725 185.4C1730.5 186.7 1735.8 189 1740.9 192.4L1749.6 176.2C1744.8 172.9 1738.6 170.4 1731 168.7C1723.4 166.9 1715.9 166 1708.6 166C1699 166 1690.6 167.4 1683.6 170.1C1676.6 172.9 1671.2 176.8 1667.3 181.9C1663.5 187 1661.6 193 1661.6 199.8C1661.6 206.3 1662.9 211.5 1665.4 215.4C1668 219.3 1671.4 222.3 1675.6 224.5C1679.9 226.7 1684.5 228.4 1689.6 229.6C1694.7 230.8 1699.8 231.8 1704.9 232.6C1710 233.4 1714.6 234.3 1718.8 235.3C1723 236.3 1726.3 237.8 1728.9 239.8C1731.5 241.8 1732.7 244.5 1732.7 248.1C1732.7 252.9 1730.6 256.7 1726.4 259.4C1722.2 262.1 1715.4 263.4 1705.9 263.4C1698.5 263.4 1691.3 262.3 1684.2 260C1677.1 257.7 1671.2 255 1666.3 251.7L1657.8 267.9C1662.6 271.6 1669.2 274.7 1677.7 277.3C1686.1 279.9 1695 281.1 1704.4 281.1C1714.5 281.1 1723.1 279.7 1730.3 277C1737.5 274.2 1743.1 270.4 1747.1 265.4C1751.1 260.4 1753.1 254.6 1753.1 247.8C1753.1 241.4 1751.8 236.3 1749.2 232.5C1746.6 228.8 1743.2 225.8 1739 223.6Z" fill="#7A8E7D"/>
<path d="M1835.6 258.7C1831.3 262.2 1826 264 1819.7 264C1814 264 1809.7 262.4 1806.6 259.1C1803.6 255.8 1802 251.2 1802 245.1V184.1H1834.3V167.3H1802V142.6H1781.6V167.3H1762.5V184.1H1781.6V246C1781.6 257.3 1784.7 266.1 1791 272.1C1797.2 278.2 1806 281.2 1817.4 281.2C1822.1 281.2 1826.6 280.6 1830.9 279.3C1835.2 278 1838.9 276 1842.1 273.3L1835.6 258.7Z" fill="#7A8E7D"/>
</svg>
