<?xml version="1.0" encoding="utf-8"?>
<!-- Generator: Adobe Illustrator 24.0.1, SVG Export Plug-In . SVG Version: 6.00 Build 0)  -->
<svg version="1.1" id="Camada_1" xmlns="http://www.w3.org/2000/svg" xmlns:xlink="http://www.w3.org/1999/xlink" x="0px" y="0px"
	 viewBox="0 0 2000 2000" style="enable-background:new 0 0 2000 2000;" xml:space="preserve">
<style type="text/css">
	.st0{fill:#FF8E20;}
	.st1{fill:#FFFFFF;}
	.st2{fill:none;stroke:#000000;stroke-width:5;stroke-miterlimit:10;}
	.st3{fill-rule:evenodd;clip-rule:evenodd;fill:#00003C;}
	.st4{fill:#7A8E7D;}
</style>
<g>
	<g>
		<g>
			<g>
				<path class="st0" d="M259.4,1037.7c-15.7,34.2-20.6,47.2-24.3,73.1c-5,35.4,23.1,52.5,58.5,28.8c14.9-9.9,48.5-40.1,81.5-75.6
					c61-65.9,125.8-150.1,125.8-150.1l31-1.4c-13.3,10.8-79.4,97.7-138.4,161.1c-34.6,37.1-76.8,77.5-93.9,87.7
					c-32.7,19.5-70,12.2-82.1-13.5c-4.6-9.7-5.8-26.3-3-45c3.3-22.6,12.1-48.4,23.9-70.3c3.1-5.8,6-11.7,8.7-17.7l11.6-22.9
					l12.3-28.4c0.5-1.3,1.1-2.7,1.8-4c18.7-37.6,26.2-60.4,26.7-82.3c0.5-22.3-16.5-39.3-62.1-16.5S105.3,966.9,105.3,966.9
					L80.8,965c26.2-32.5,94.5-93.6,141.6-119.8c47-26.2,72.2-19.9,90.9,4.7c17.7,23.3,1.5,77-20.2,117.1c-2.8,5.2-3.8,4.3-17.9,35.1
					L259.4,1037.7z"/>
				<path class="st0" d="M473.4,902.7l54.7-16.8c5.4-1.7,10.9,2.5,10.7,8.2l-2.1,53.4c-0.2,4.3-5.6,6.1-8.3,2.6l0,0
					c-5.9-7.6-10-15.6-12.4-25l-2.8-1.8c-1.7-3-4.5-5.1-7.9-5.8l-3.3-0.1c-10.2-2.6-20.1-2.7-29.2-7.3l0,0
					C469.6,908.4,470,903.7,473.4,902.7z"/>
				<g>
					<path class="st1" d="M111.1,1000.9H99.7v13.3H80.5V1001v-40.3h19.1h20.7c11.1,0,20.9,8.9,20.9,20.2c0,11-8,17.5-10.2,18.1
						l10.6,15.1h-22.2L111.1,1000.9z M99.7,984.1h17c4.9,0,6-0.2,6-3.1c0-3.1-1-3.2-6-3.2h-17V984.1z"/>
				</g>
				<path class="st1" d="M350.1,960.7c18.3,0,37.4,0,55.8,0v15.7c-3.8,0-26.6,0-36.7,0v4.4c10.9,0,25.8,0,36.7,0v13.3h-36.7v4.5
					h36.7v15.6c-18.3,0-37.5,0-55.8,0V960.7z"/>
				<path class="st1" d="M347.9,976.4h-24.6v37.8h-17.8v-37.8c-9.8,0.1-20.2,0.1-24.6,0.1v-15.7c21.6,0,45.3,0,67,0V976.4z"/>
				<path class="st1" d="M240.5,997.2c3.5,0,6.3,0,9.9,0c5.1,0,8.4-3.7,8.4-10.6v-25.9h20.1v25.9c0,18.4-11.6,27.1-23.3,27.1h-20.2
					c-11.7,0-23.3-8.6-23.3-27.1v-25.9H232v25.9C232,993.6,235.3,997.2,240.5,997.2z"/>
				<path class="st1" d="M185.5,960.7h-16.9c-13.2,0-23.9,10.7-23.9,23.9v5.6c0,13.2,10.7,23.9,23.9,23.9h16.9c13.2,0,24-10.7,24-24
					v-5.5C209.5,971.5,198.8,960.7,185.5,960.7z M191.6,988.8c0,5.3-4.3,9.6-9.6,9.6h-9.5c-5.3,0-9.6-4.3-9.6-9.6V986
					c0-5.3,4.3-9.6,9.6-9.6h9.5c5.3,0,9.6,4.3,9.6,9.6V988.8z"/>
				<g>
					<path class="st1" d="M80.5,1050v-24.6h4.7v24.6H80.5z"/>
				</g>
				<path class="st1" d="M116.7,1025.3l5.9,19.2l5.9-19.2h4.9L125,1050H120l-8.4-24.6H116.7z"/>
				<path class="st1" d="M151.7,1035v4.4h-11.9v6.1h11.9v4.5h-16.9v-24.6h16.9v4.4h-11.9v5.2H151.7z"/>
				<path class="st1" d="M169.4,1032.6c-0.2-2.3-1.7-3.6-4.2-3.6c-2.1,0-3.7,1.1-3.7,2.7c0,0.8,0.5,1.4,1.3,1.9
					c0.7,0.4,0.7,0.4,4.3,1.7c4.5,1.8,5.1,2.1,6.2,3.2c1.1,1.1,1.7,2.7,1.7,4.4c0,4.7-3.6,7.6-9.2,7.6c-6.3,0-9.8-3.1-10-8.9h4.8
					c0.3,3.2,2.1,4.8,5.3,4.8c2.4,0,4.1-1.1,4.1-2.6c0-1-0.6-1.7-1.8-2.4c-0.7-0.4-0.7-0.4-4.4-1.8c-3-1.2-4.4-2-5.4-3
					c-1.1-1.2-1.7-2.7-1.7-4.4c0-4.2,3.6-7.2,8.8-7.2c3.3,0,6,1.3,7.6,3.4c0.8,1.2,1.2,2.3,1.3,4.3H169.4z"/>
				<path class="st1" d="M94.6,1025.3l10.2,17.3v-17.3h4.6v24.6h-4.9L94,1032.6v17.3h-4.6v-24.6H94.6z"/>
				<path class="st1" d="M204.9,1025.3l5.1,19.6l5.1-19.6h6.2v24.6h-4.1v-19.2l-5,19.2h-4.7l-4.9-19.2v19.2h-4.1v-24.6H204.9z"/>
				<path class="st1" d="M242.7,1035v4.4H231v6.1h11.6v4.5h-16.9v-24.6h16.9v4.4H231v5.2H242.7z"/>
				<path class="st1" d="M252.2,1025.3l10.2,17.3v-17.3h4.6v24.6h-4.9l-10.5-17.3v17.3h-4.6v-24.6H252.2z"/>
				<path class="st1" d="M195.1,1025.3v4.4h-6.5v20.2h-5.1v-20.2H177v-4.4H195.1z"/>
				<path class="st1" d="M288,1025.3v4.4h-6.5v20.2h-5.1v-20.2h-6.5v-4.4H288z"/>
				<path class="st1" d="M303.8,1032.6c-0.2-2.3-1.7-3.6-4.2-3.6c-2.1,0-3.7,1.1-3.7,2.7c0,0.8,0.5,1.4,1.3,1.9
					c0.7,0.4,0.7,0.4,4.3,1.7c4.5,1.8,5.1,2.1,6.2,3.2c1.1,1.1,1.7,2.7,1.7,4.4c0,4.7-3.6,7.6-9.2,7.6c-6.3,0-9.8-3.1-10-8.9h4.8
					c0.3,3.2,2.1,4.8,5.3,4.8c2.4,0,4.1-1.1,4.1-2.6c0-1-0.6-1.7-1.8-2.4c-0.7-0.4-0.7-0.4-4.4-1.8c-3-1.2-4.4-2-5.4-3
					c-1.1-1.2-1.7-2.7-1.7-4.4c0-4.2,3.6-7.2,8.8-7.2c3.3,0,6,1.3,7.6,3.4c0.8,1.2,1.2,2.3,1.3,4.3H303.8z"/>
			</g>
			<g>
				<path class="st0" d="M259.4,1037.6c-15.7,34.1-20.6,47.1-24.2,72.9c-5,35.4,23,52.4,58.4,28.8c14.8-9.9,48.4-40,81.3-75.5
					C435.7,998,500.4,914,500.4,914l31-1.4c-13.3,10.8-79.2,97.5-138.1,160.8c-34.5,37-76.6,77.3-93.7,87.5
					c-32.6,19.4-69.9,12.2-82-13.4c-4.6-9.7-5.7-26.3-3-44.9c3.3-22.6,12-48.3,23.8-70.1c3.1-5.8,6-11.6,8.7-17.6l11.6-22.9
					l12.3-28.3c0.5-1.3,1.1-2.7,1.8-4c18.7-37.5,26.1-60.3,26.6-82.2c0.5-22.3-16.4-39.2-61.9-16.4S105.6,967,105.6,967l-24.4-1.9
					c26.1-32.4,94.3-93.4,141.3-119.5s72.1-19.8,90.7,4.7c17.6,23.2,1.5,76.8-20.1,116.9c-2.8,5.2-3.8,4.3-17.8,35.1L259.4,1037.6z"
					/>
				<path class="st0" d="M473,902.9l54.6-16.8c5.4-1.7,10.9,2.5,10.6,8.2l-2.1,53.3c-0.2,4.3-5.6,6-8.3,2.6l0,0
					c-5.9-7.6-10-15.5-12.4-25l-2.8-1.8c-1.7-3-4.5-5.1-7.8-5.8l-3.3-0.1c-10.2-2.6-20.1-2.7-29.1-7.3l0,0
					C469.1,908.6,469.5,904,473,902.9z"/>
			</g>
			<g>
				<path d="M111.4,1000.9H100v13.3H80.9V1001v-40.2H100h20.6c11.1,0,20.9,8.9,20.9,20.1c0,11-8,17.5-10.2,18l10.6,15.1h-22.1
					L111.4,1000.9z M100,984.1h16.9c4.9,0,6-0.2,6-3.1c0-3.1-1-3.2-6-3.2H100V984.1z"/>
			</g>
			<path d="M349.9,960.8c18.2,0,37.3,0,55.6,0v15.6c-3.8,0-26.6,0-36.6,0v4.4c10.9,0,25.7,0,36.6,0v13.3h-36.6v4.5h36.6v15.5
				c-18.3,0-37.4,0-55.6,0V960.8z"/>
			<path d="M347.7,976.4h-24.5v37.7h-17.8v-37.7c-9.7,0.1-20.1,0.1-24.5,0.1v-15.7c21.5,0,45.2,0,66.8,0V976.4z"/>
			<path d="M240.5,997.2c3.5,0,6.3,0,9.9,0c5.1,0,8.4-3.6,8.4-10.6v-25.9h20.1v25.9c0,18.4-11.6,27-23.3,27h-20.2
				c-11.7,0-23.3-8.6-23.3-27v-25.9h20.1v25.9C232.1,993.6,235.3,997.2,240.5,997.2z"/>
			<path d="M185.7,960.8h-16.9c-13.2,0-23.9,10.7-23.9,23.9v5.6c0,13.2,10.7,23.9,23.9,23.9h16.9c13.2,0,23.9-10.7,23.9-23.9v-5.4
				C209.6,971.5,198.9,960.8,185.7,960.8z M191.7,988.8c0,5.3-4.3,9.6-9.6,9.6h-9.4c-5.3,0-9.6-4.3-9.6-9.6V986
				c0-5.3,4.3-9.6,9.6-9.6h9.4c5.3,0,9.6,4.3,9.6,9.6V988.8z"/>
			<g>
				<path d="M80.9,1049.8v-24.6h4.7v24.6H80.9z"/>
			</g>
			<path d="M117,1025.3l5.9,19.2l5.9-19.2h4.9l-8.5,24.6h-4.9l-8.4-24.6H117z"/>
			<path d="M152,1034.9v4.4h-11.9v6.1H152v4.5h-16.8v-24.6H152v4.4h-11.9v5.2H152z"/>
			<path d="M169.6,1032.5c-0.2-2.3-1.7-3.6-4.2-3.6c-2.1,0-3.7,1.1-3.7,2.7c0,0.8,0.5,1.4,1.3,1.9c0.7,0.4,0.7,0.4,4.2,1.7
				c4.5,1.8,5.1,2.1,6.2,3.2c1.1,1.1,1.7,2.7,1.7,4.4c0,4.7-3.5,7.6-9.2,7.6c-6.3,0-9.8-3.1-10-8.8h4.8c0.3,3.2,2.1,4.7,5.3,4.7
				c2.4,0,4.1-1.1,4.1-2.6c0-1-0.6-1.7-1.8-2.4c-0.7-0.4-0.7-0.4-4.4-1.8c-3-1.2-4.4-2-5.4-3c-1.1-1.2-1.7-2.7-1.7-4.4
				c0-4.2,3.6-7.2,8.8-7.2c3.3,0,6,1.3,7.6,3.4c0.8,1.2,1.2,2.3,1.3,4.3H169.6z"/>
			<path d="M94.9,1025.3l10.1,17.3v-17.3h4.6v24.6h-4.8l-10.4-17.3v17.3h-4.6v-24.6H94.9z"/>
			<path d="M205,1025.3l5.1,19.5l5.1-19.5h6.2v24.6h-4.1v-19.1l-5,19.1h-4.6l-4.9-19.1v19.1h-4.1v-24.6H205z"/>
			<path d="M242.7,1034.9v4.4h-11.6v6.1h11.6v4.5h-16.8v-24.6h16.8v4.4h-11.6v5.2H242.7z"/>
			<path d="M252.2,1025.3l10.1,17.3v-17.3h4.6v24.6h-4.8l-10.4-17.3v17.3h-4.6v-24.6H252.2z"/>
			<path d="M195.2,1025.3v4.4h-6.5v20.1h-5.1v-20.1h-6.5v-4.4H195.2z"/>
			<path d="M287.9,1025.3v4.4h-6.5v20.1h-5.1v-20.1h-6.5v-4.4H287.9z"/>
			<path d="M303.7,1032.5c-0.2-2.3-1.7-3.6-4.2-3.6c-2.1,0-3.7,1.1-3.7,2.7c0,0.8,0.5,1.4,1.3,1.9c0.7,0.4,0.7,0.4,4.2,1.7
				c4.5,1.8,5.1,2.1,6.2,3.2c1.1,1.1,1.7,2.7,1.7,4.4c0,4.7-3.5,7.6-9.2,7.6c-6.3,0-9.8-3.1-10-8.8h4.8c0.3,3.2,2.1,4.7,5.3,4.7
				c2.4,0,4.1-1.1,4.1-2.6c0-1-0.6-1.7-1.8-2.4c-0.7-0.4-0.7-0.4-4.4-1.8c-3-1.2-4.4-2-5.4-3c-1.1-1.2-1.7-2.7-1.7-4.4
				c0-4.2,3.6-7.2,8.8-7.2c3.3,0,6,1.3,7.6,3.4c0.8,1.2,1.2,2.3,1.3,4.3H303.7z"/>
		</g>
		<line class="st2" x1="681" y1="809.1" x2="681" y2="1190.9"/>
		<g>
			<g>
				<path class="st3" d="M907.1,984.6c0.4-11.8-9.4-22.6-30-23c-14.6-0.2-25.3,4.8-26.3,16.8c-0.8,10,2.6,12,9.2,14.6
					c3.4,3.6,30.9,8,36.5,9c8,1.4,25.2,5,34.3,14.4c16.8,17.6,9,52.1-9.2,63.9c-12.4,8-29.3,10-45.5,10.2c-7.4,0.2-25-2.4-35.7-10.2
					c-13-9.4-19.4-23.8-20.4-37.5h29.1c0,3.8,1.2,9.8,6.2,15c6.6,6.8,17.4,9,27.3,8.6c10-0.2,19.4-3.2,23.2-6.8
					c6.4-6,7.8-17.4,0.6-24.5c-9.6-10-38.3-10-57.1-16.4c-15.8-5.4-28.7-16.8-26.3-40.3c2.4-23.1,19.2-40.3,54.7-40.3
					c7.8,0,34.9,0.6,49.1,18.6c7.6,9.8,9.6,23.3,8.4,28.1L907.1,984.6L907.1,984.6L907.1,984.6z"/>
				<path class="st3" d="M1040.8,1069.2v-59.1c0-17.2-8.6-26-19.4-30.3c-5.4-2.2-14.8-4-25.5-4c-14.8,0-44.3,3.2-44.7,37.7h26.4
					c0.4-7.8,2.4-17.6,18.4-17.6c12.8,0,18.4,3,18.4,9.8c0.4,5.2-2,10.4-7,12.2c-6.6,2.2-17.8,4.6-28.1,5
					c-24.7,4.2-30.7,19-31.3,34.1c-0.8,20.9,10,33.3,31.9,33.3c16.4,0,24.9-6.2,34.7-15.4c-0.2,3.8,1,8.2,3,10.8h29.5v-3.8
					C1043.4,1078.8,1040.6,1074,1040.8,1069.2z M1014.3,1041.1c0,12-3,23.6-19.6,26.1c-12,2-17-2.6-18.6-9
					c-2.4-8.8,3.6-16,12.2-17.6c7.2-1.4,18-1,26-5.8h0V1041.1z"/>
				<path class="st3" d="M1051.8,977.6h15.2v-10.4c0-16.2,8.2-26.9,26.3-26.9h17.4V961h-9.8c-3.8,0-6,2.4-6,7.4v9.2h16.6v18.6h-16.6
					v89.6H1067v-89.6h-15.2L1051.8,977.6L1051.8,977.6z"/>
				<path class="st3" d="M1123.6,977.6h27.9v21h0.4c1.8-6.4,3.2-10.2,13-17c4.8-3.6,11.2-7.2,20-5.8v28.5c-12-1.4-29.9-3-33.3,20.6
					v60.9h-27.9V977.6z"/>
				<path class="st3" d="M1282.6,1069.2v-59.1c0-17.2-8.6-26-19.4-30.3c-5.4-2.2-14.8-4-25.5-4c-14.8,0-44.3,3.2-44.7,37.7h26.4
					c0.4-7.8,2.4-17.6,18.4-17.6c12.8,0,18.4,3,18.4,9.8c0.4,5.2-2,10.4-7,12.2c-6.6,2.2-17.8,4.6-28.1,5
					c-24.8,4.2-30.7,19-31.3,34.1c-0.8,20.9,10,33.3,31.9,33.3c16.4,0,25-6.2,34.7-15.4c-0.2,3.8,1,8.2,3,10.8h29.5v-3.8
					C1285.2,1078.8,1282.4,1074,1282.6,1069.2z M1256.1,1041.1c0,12-3,23.6-19.6,26.1c-12,2-17-2.6-18.5-9
					c-2.4-8.8,3.6-16,12.2-17.6c7.2-1.4,18-1,25.9-5.8h0V1041.1z"/>
			</g>
		</g>
		<g>
			<rect x="1348.3" y="940.3" class="st4" width="21.3" height="148.8"/>
			<path class="st4" d="M1471.7,980.7c-7-3.5-15.1-5.3-24.3-5.3c-10.2,0-19.1,2.1-26.8,6.2c-5.7,3.1-10.3,7-13.8,11.9v-17h-19.6
				v112.7h20.4v-58c0-8.2,1.5-15.1,4.4-20.6c2.9-5.5,7-9.7,12.4-12.5c5.4-2.8,11.7-4.3,18.9-4.3c9.6,0,17.1,2.8,22.4,8.3
				c5.3,5.5,8,13.7,8,24.7v62.5h20.4v-64.8c0-11.1-2-20.2-6-27.4C1484.2,989.6,1478.7,984.2,1471.7,980.7z"/>
			<polygon class="st4" points="1556.4,1066.7 1517.7,976.4 1496.4,976.4 1545.7,1089.1 1566.6,1089.1 1615.9,976.4 1595.9,976.4 
							"/>
			<path class="st4" d="M1701.4,982.6c-8.4-4.8-18-7.2-28.9-7.2c-10.8,0-20.4,2.4-29,7.3c-8.6,4.9-15.3,11.7-20.2,20.3
				c-4.9,8.6-7.3,18.6-7.3,29.8c0,11.2,2.5,21.1,7.5,29.8c5,8.6,12.1,15.4,21.3,20.4c9.1,5,19.7,7.4,31.8,7.4
				c9.4,0,17.8-1.6,25.4-4.7c7.6-3.1,13.9-7.7,19-13.6l-11.3-13.2c-4.1,4.5-8.9,7.9-14.3,10.2c-5.5,2.3-11.5,3.4-18.2,3.4
				c-8.1,0-15.2-1.6-21.5-4.9c-6.2-3.3-11.1-7.8-14.6-13.7c-2.6-4.3-4.2-9.1-4.8-14.3h91.5c0.1-1,0.2-2.1,0.3-3.2
				c0.1-1.1,0.1-2.1,0.1-3c0-11.6-2.4-21.8-7.1-30.5C1716.3,994.2,1709.7,987.4,1701.4,982.6z M1653.5,997.4
				c5.5-3.2,11.8-4.8,18.9-4.8c7.2,0,13.6,1.6,19,4.8c5.5,3.2,9.7,7.6,12.9,13.3c2.4,4.3,3.8,9,4.3,14.2h-72.4
				c0.6-5.2,2-9.9,4.4-14.1C1643.7,1005,1648,1000.5,1653.5,997.4z"/>
			<path class="st4" d="M1819.5,1032.7c-4.2-2.1-8.8-3.8-13.9-5c-5.1-1.2-10.2-2.2-15.3-3c-5.1-0.8-9.7-1.7-13.9-2.9
				c-4.2-1.1-7.6-2.7-10.2-4.8c-2.6-2.1-3.9-5-3.9-8.8c0-4.5,2.2-8.3,6.6-11.2c4.4-2.9,11.1-4.4,20-4.4c5.5,0,11.1,0.6,16.6,1.9
				c5.5,1.3,10.8,3.6,15.9,7l8.7-16.2c-4.8-3.3-11-5.8-18.6-7.5c-7.6-1.8-15.1-2.7-22.4-2.7c-9.6,0-18,1.4-25,4.1
				c-7,2.8-12.4,6.7-16.3,11.8c-3.8,5.1-5.7,11.1-5.7,17.9c0,6.5,1.3,11.7,3.8,15.6c2.6,3.9,6,6.9,10.2,9.1c4.3,2.2,8.9,3.9,14,5.1
				c5.1,1.2,10.2,2.2,15.3,3c5.1,0.8,9.7,1.7,13.9,2.7c4.2,1,7.5,2.5,10.1,4.5c2.6,2,3.8,4.7,3.8,8.3c0,4.8-2.1,8.6-6.3,11.3
				c-4.2,2.7-11,4-20.5,4c-7.4,0-14.6-1.1-21.7-3.4c-7.1-2.3-13-5-17.9-8.3l-8.5,16.2c4.8,3.7,11.4,6.8,19.9,9.4
				c8.4,2.6,17.3,3.8,26.7,3.8c10.1,0,18.7-1.4,25.9-4.1c7.2-2.8,12.8-6.6,16.8-11.6c4-5,6-10.8,6-17.6c0-6.4-1.3-11.5-3.9-15.3
				C1827.1,1037.9,1823.7,1034.9,1819.5,1032.7z"/>
			<path class="st4" d="M1916.1,1067.8c-4.3,3.5-9.6,5.3-15.9,5.3c-5.7,0-10-1.6-13.1-4.9c-3-3.3-4.6-7.9-4.6-14v-61h32.3v-16.8
				h-32.3v-24.7h-20.4v24.7H1843v16.8h19.1v61.9c0,11.3,3.1,20.1,9.4,26.1c6.2,6.1,15,9.1,26.4,9.1c4.7,0,9.2-0.6,13.5-1.9
				c4.3-1.3,8-3.3,11.2-6L1916.1,1067.8z"/>
		</g>
	</g>
</g>
</svg>
